<?xml version="1.0" encoding="utf-8"?>
<!-- Generator: Adobe Illustrator 16.0.0, SVG Export Plug-In . SVG Version: 6.00 Build 0)  -->
<!DOCTYPE svg PUBLIC "-//W3C//DTD SVG 1.1//EN" "http://www.w3.org/Graphics/SVG/1.1/DTD/svg11.dtd">
<svg version="1.1" id="Layer_1" xmlns="http://www.w3.org/2000/svg" xmlns:xlink="http://www.w3.org/1999/xlink" x="0px" y="0px"
	 width="288px" height="252px" viewBox="0 0 288 252" enable-background="new 0 0 288 252" xml:space="preserve">
<g id="Guides">
</g>
<g id="Crop_Marks">
	
		<line fill="#FFFFFF" stroke="#FFFFFF" stroke-width="0.5" stroke-dasharray="4,3" x1="128.77" y1="-34.1" x2="128.77" y2="-6.797"/>
	
		<line fill="#FFFFFF" stroke="#FFFFFF" stroke-width="0.5" stroke-dasharray="4,3" x1="128.77" y1="262.719" x2="128.77" y2="290.021"/>
	
		<line fill="#FFFFFF" stroke="#FFFFFF" stroke-width="0.5" stroke-dasharray="4,3" x1="552.361" y1="-33.497" x2="552.361" y2="-6.497"/>
	
		<line fill="#FFFFFF" stroke="#FFFFFF" stroke-width="0.5" stroke-dasharray="4,3" x1="552.164" y1="514.42" x2="552.164" y2="541.42"/>
	<line fill="#FFFFFF" stroke="#FFFFFF" stroke-width="0.5" x1="371.781" y1="255.32" x2="398.781" y2="255.32"/>
	<line fill="#FFFFFF" stroke="#FFFFFF" stroke-width="0.5" x1="704.781" y1="255.387" x2="731.781" y2="255.387"/>
	<text transform="matrix(1 0 0 1 68.1958 94.6914)" fill="#FFFFFF" font-family="'MyriadPro-Regular'" font-size="36">THE</text>
	<text transform="matrix(1 0 0 1 72.1958 137.8906)" fill="#FFFFFF" font-family="'MyriadPro-Regular'" font-size="36">CODING</text>
	<text transform="matrix(1 0 0 1 68.1958 181.0908)" fill="#FFFFFF" font-family="'MyriadPro-Regular'" font-size="36">YOGINI</text>
	<path fill="#FFFFFF" d="M233.58,321.615c0,0.32,0,0.641,0,0.961"/>
</g>
<rect x="241.5" fill="none" width="133" height="9.5"/>
<g>
	
		<rect x="133.314" y="23.058" transform="matrix(0.981 0.1939 -0.1939 0.981 16.2743 -33.3953)" fill-rule="evenodd" clip-rule="evenodd" fill="#FFFFFF" width="90.878" height="86.779"/>
	<g id="Layer_4_1_" inkpad:layerName="Layer 5">
		<g>
			<path fill="#FFFFFF" d="M161.064,74.318c0,0-10.601-5.037-15.129,2.895c0,0,2.278,0.804,5.409,6.096
				c3.132,5.291,9.053,5.663,12.282,4.479c0,0,1.913,7.787,6.963,9.81c0,0,7.748-3.369,9.4-9.426c0,0,1.324,8.924,9.841,7.644
				c8.517-1.279,10.85-4.809,10.85-4.809s-2.698-9.717-10.387-9.868c0,0,6.421,3.492,8.173,8.835c0,0-14.632,11.281-18.33-5.344
				c0,0-1.906,7.325-8.841,10.706c0,0-6.688-0.503-6.168-9.412l3.431-4.483c0,0-5.502,5.386-10.135,4.716s-5.519-3.332-7.26-6.135
				c-1.738-2.804-3.683-3.606-3.683-3.606S153.797,72.062,161.064,74.318z"/>
			<path fill="#FFFFFF" d="M162,67.503c0,0-1.819,17.431,12.031,13.149c0,0,4.451,5.776,8.998,2.84
				c4.547-2.938,5.661-11.204,5.661-11.204s-8.368-0.104-12.815,6.606c0,0,6.607-5.467,9.973-4.394c0,0,0.804,4.811-4.039,7.606
				c-4.846,2.797-7.324-2.427-7.324-2.427s-9.661,3.478-11.116-7.908c0,0,7.401,2.033,9.658,5.743
				C173.026,77.516,169.856,70.852,162,67.503z"/>
			<path fill="#FFFFFF" d="M170.572,73.611c0,0,1.28-13.021,10.646-17.284c0,0,5.904,6.708,4.163,16.677
				c0,0-4.422,1.104-6.183,2.858c0,0,5.77-7.205,2.241-17.431C181.439,58.432,174.106,58.584,170.572,73.611z"/>
			<path fill="#FFFFFF" d="M164.105,68.911c0,0-2.573-11.337,4.908-19.318c0,0,3.046,17.822,1.284,24.323
				c0,0-0.114-15.784-2.033-20.553c0,0-3.734,8.439-2.356,17.025c0,0-2.763-5.866,0.651-15.367
				C166.56,55.021,163.704,57.667,164.105,68.911z"/>
			<path fill="#FFFFFF" d="M164.55,59.133c0,0-4.619-5.724-6.609-5.824c0,0-7.202,14.496,5.595,22.357c0,0-7.684-6.238-6.039-15.618
				c0,0,1.489,9.387,5.08,12.37c0,0-5.008-9.559-4.112-15.852C158.464,56.566,160.005,55.577,164.55,59.133z"/>
			<path fill="#FFFFFF" d="M158.58,54.584c0,0-2.766-7.334-10.607-6.289c0,0-1.756,15.324,11.877,23.608
				c0,0-9.996-6.966-10.514-20.044c0,0,0.947,6.875,3.802,9.734c0,0-3.069-6.596-2.388-11.252
				C150.75,50.342,152.984,48.288,158.58,54.584z"/>
			<path fill="#FFFFFF" d="M187.051,73.916c0,0,7.977-10.617,13.494-10.858c0,0,0.634,16.212-16.191,19.138
				c0,0,9.894-2.554,13.766-13.88c0,0-0.9,2.487-5.961,6.61c0,0,4-4.129,5.721-9.117C197.879,65.809,191.443,69.455,187.051,73.916z
				"/>
			<path fill="#FFFFFF" d="M188.998,80.584c0,0,10.034,4.195,23.636-11.675c0,0-2.638-6.517-14.245-2.459
				c0,0,8.492-1.818,11.891,1.994c0,0-11.422,10.591-19.122,10.996c0,0,6.446,1.345,14.165-5.767
				C205.322,73.674,197.318,82.515,188.998,80.584z"/>
			<path fill="#FFFFFF" d="M160.385,54.664c0,0,3.857-8.785,7.936-10.549c0,0,2.287,0.636,3.385,4.341c0,0-0.521-1.626-3.547-3.096
				c0,0-5.687,6.862-6.4,11.285c0,0,0.93-5.818,3.594-9.217L160.385,54.664z"/>
			<path fill="#FFFFFF" d="M169.15,53.162c0,0,0.989-3.424,3.49-5.605l1.769,2.475c0,0,1.457-2.518,2.748-2.864l1.114,1.622
				c0,0,1.073-1.122,2.543-1.565c0,0,1.765-0.052,2.422,3.347c0,0,1.213-0.761,3.22-0.964c0,0,5.869,8.766-0.294,23.435
				c0,0,3.877-13.109,0.125-20.073c0,0,0.802,4.879,0.273,8.993c0,0-0.12-6.889-2.647-10.249l-1.438,0.646
				c0,0,0.408-2.352-1.197-3.742c0,0-1.934-0.023-2.959,1.991c0,0-0.807-1.56-1.43-1.873c0,0-2.309,1.497-2.452,3.567
				c0,0-1.603-2.271-2.169-2.859c0,0-2.784,2.284-2.544,7.786L169.15,53.162z"/>
			<path fill="#FFFFFF" d="M170.169,60.225c0,0,1.103-3.22,3.397-5.684c0,0,0.338,1.169,1.124,3.465c0,0,1.104-1.404,3.328-2.196
				c0,0-0.188,1.067,0.523,2.957c0,0-0.989-0.104-1.189-1.593c0,0-2.751,1.112-3.098,3.287l-0.933-4.74c0,0-3.091,4.082-3.12,6.727
				L170.169,60.225z"/>
			<path fill="#FFFFFF" d="M187.566,53.365c0,0,1.207-3.184,2.782-3.464c0,0,3.681,12.182-3.72,23.705c0,0,5.235-9.638,3.309-20.369
				c0,0,0.178-0.14-0.211,3.009c0,0,0.146-2.512-0.998-4.009l-0.783,2.582L187.566,53.365z"/>
			<path fill="#FFFFFF" d="M190.219,51.223c0,0,3.068-6.708,8.719-6.722c0,0,1.711,13.533-6.223,23.88
				c0,0,6.571-13.179,5.289-20.672c0,0-3.249,2.147-4.686,8.803c0,0,0.624-8.625,3.959-10.907c0,0-5.637,2.172-6.509,7.92
				L190.219,51.223z"/>
			<path fill="#FFFFFF" d="M196.644,60.104c0,0,2.515-2.732,5.09-2.281c0,0,1.816,2.092,0.187,8.124c0,0,0.877-5.358-0.406-7.531
				c0,0,0.424,1.181-0.684,3.657c0,0,0.731-2.414-0.059-3.759c0,0-3.896,1.652-5.014,4.356L196.644,60.104z"/>
			<path fill="#FFFFFF" d="M158.647,54.749c0,0,1.973-12.831,4.733-15.112c0,0,4.256,1.548,5.143,5.046c0,0-3.037-2.967-4.773-3.243
				l-0.232,5.971l-0.49-5.783c0,0-3.967,8.871-2.816,13.992L158.647,54.749z"/>
			<path fill="#FFFFFF" d="M172.526,48.368c0,0,1.126-3.933,4.989-4.973c0,0,1.709-0.046,3.141,4.392c0,0-1.764-2.534-3.085-3.123
				C177.571,44.664,175.463,43.646,172.526,48.368z"/>
			<path fill="#FFFFFF" d="M181.746,48.003c0,0,4.099-5.312,7.168-5.197c0,0,1.755,3.024,0.768,8.46c0,0-0.037-4.216-1.058-6.549
				l-1.366,3.173l0.956-3.747C188.214,44.143,184.58,44.682,181.746,48.003z"/>
			<path fill="#FFFFFF" d="M176.01,44.409c0,0,2.461-7.385,7.088-9.86c0,0,2.861,0.073,4.11,9.395c0,0-0.478-3.318-3.12-6.247
				l-1.104,4.483l0.031-6.116C183.016,36.063,178.412,39.746,176.01,44.409z"/>
			<path fill="#FFFFFF" d="M168.557,44.377c0,0,0.527-2.149,3.015-4.36c0,0,3.009-0.436,4.372,4.339c0,0-2.8-3.282-3.873-3.408
				l0.732,4.275l-1.127-4.01C171.676,41.213,169.676,41.88,168.557,44.377z"/>
			<path fill="#FFFFFF" d="M154.699,72.922c0,0-2.92-0.477-3.753-3.876c0,0,2.688,0.433,5.157-0.622c0,0-0.703,1.672-2.809,1.36
				l4.966,1.601l-5.878-0.826L154.699,72.922z"/>
		</g>
	</g>
</g>
</svg>
